{"accessors" : [{"bufferView" : 0, "byteOffset" : 0, "componentType" : 5125, "count" : 224466, "type" : "SCALAR", "max" : [154986], "min" : [0]}, {"bufferView" : 1, "byteOffset" : 0, "componentType" : 5126, "count" : 154987, "type" : "VEC3", "max" : [55.5, 18.6086540222168, 18.6114025115967], "min" : [-73.1999969482422, -18.6086540222168, -18.6114025115967]}, {"bufferView" : 1, "byteOffset" : 12, "componentType" : 5126, "count" : 154987, "type" : "VEC3", "max" : [1.00000441074371, 1.00000441074371, 1.00000441074371], "min" : [-1.00000441074371, -1.00000441074371, -1.00000441074371]}], "asset" : {"generator" : "Aspose.3D 20.2.1", "version" : "2.0"}, "buffers" : [{"uri" : "buffer.bin", "byteLength" : 4617560}], "bufferViews" : [{"buffer" : 0, "byteOffset" : 0, "byteLength" : 897864, "target" : 34963}, {"buffer" : 0, "byteOffset" : 897868, "byteLength" : 3719688, "byteStride" : 24, "target" : 34962}], "meshes" : [{"primitives" : [{"attributes" : {"POSITION" : 1, "NORMAL" : 2}, "indices" : 0, "mode" : 4}]}], "nodes" : [{"mesh" : 0, "name" : ""}], "scene" : 0, "scenes" : [{"nodes" : [0]}]}